<?xml version="1.0" standalone="no"?>
<!DOCTYPE svg PUBLIC "-//W3C//DTD SVG 20010904//EN"
 "http://www.w3.org/TR/2001/REC-SVG-20010904/DTD/svg10.dtd">
<svg version="1.0" xmlns="http://www.w3.org/2000/svg"
 width="700.000000pt" height="700.000000pt" viewBox="0 0 700.000000 700.000000"
 preserveAspectRatio="xMidYMid meet">
<metadata>
Created by potrace 1.14, written by Peter Selinger 2001-2017
</metadata>
<g transform="translate(0.000000,700.000000) scale(0.100000,-0.100000)"
fill="#000000" stroke="none">
<path d="M3475 6973 c-27 -8 -56 -15 -63 -15 -7 -1 -10 -8 -8 -15 3 -8 2 -12
-2 -9 -15 9 -67 -68 -57 -84 3 -5 1 -11 -4 -14 -5 -3 -8 -24 -7 -46 0 -22 -2
-40 -5 -40 -3 0 -5 -17 -4 -37 0 -21 -1 -42 -4 -48 -3 -5 -7 -35 -9 -65 -4
-67 -9 -125 -12 -125 -1 0 -3 -25 -5 -55 -2 -30 -6 -88 -9 -128 -2 -41 -7 -76
-10 -79 -3 -3 -12 2 -21 11 -9 9 -14 16 -10 16 3 0 -4 10 -17 23 -29 28 -87
57 -104 50 -6 -2 -15 1 -19 6 -3 6 -11 8 -17 5 -9 -6 -40 -11 -103 -17 -11 -2
-26 -6 -32 -10 -7 -5 -13 -5 -13 -1 0 3 -7 1 -15 -6 -8 -7 -15 -10 -15 -7 0 4
-18 0 -40 -8 -22 -8 -40 -12 -40 -9 0 2 -8 0 -17 -5 -17 -8 -51 -17 -98 -23
-11 -2 -22 -6 -25 -10 -3 -4 -24 -10 -45 -14 -22 -3 -44 -9 -50 -14 -5 -4 -20
-6 -32 -5 -13 1 -23 -2 -23 -6 0 -4 -19 -10 -42 -14 -24 -4 -47 -10 -53 -13
-5 -4 -19 -8 -30 -9 -11 -2 -27 -6 -35 -10 -8 -3 -26 -8 -40 -10 -14 -2 -32
-7 -40 -10 -17 -8 -28 -10 -53 -12 -10 0 -16 -5 -13 -9 2 -4 -11 -7 -30 -7
-19 1 -34 -3 -34 -8 0 -5 -7 -7 -15 -3 -8 3 -15 2 -15 -3 0 -7 -7 -9 -47 -12
-10 -1 -24 -6 -30 -12 -7 -5 -13 -6 -13 -2 0 4 -7 2 -15 -5 -12 -10 -15 -10
-15 1 0 9 -3 10 -8 3 -6 -9 -44 -21 -157 -50 -46 -11 -106 -21 -101 -17 3 3
-2 20 -11 37 -10 17 -16 34 -15 39 1 4 -2 7 -8 7 -5 0 -10 7 -10 15 0 7 -8 19
-17 24 -11 6 -13 11 -5 11 9 0 10 3 2 13 -38 45 -50 61 -50 69 0 4 -7 8 -15 8
-8 0 -15 5 -15 10 0 6 -9 10 -21 10 -11 0 -18 4 -15 9 5 8 -43 7 -104 -2 -27
-4 -102 -35 -110 -46 -3 -3 -9 -6 -15 -7 -18 -1 -110 -46 -117 -58 -4 -6 -8
-8 -8 -3 0 4 -10 1 -23 -8 -13 -8 -27 -12 -30 -9 -4 4 -9 -1 -13 -10 -3 -9
-10 -14 -14 -11 -5 3 -11 1 -15 -5 -4 -6 -11 -8 -16 -5 -5 4 -9 2 -9 -4 0 -6
-7 -7 -17 -4 -11 4 -14 3 -9 -5 4 -7 2 -12 -6 -12 -24 -1 -108 -47 -100 -55 4
-5 2 -5 -4 -2 -10 6 -112 -37 -176 -73 -77 -43 -181 -89 -189 -84 -5 3 -9 0
-9 -5 0 -12 -68 -45 -86 -42 -7 1 -14 -6 -18 -14 -3 -9 -10 -14 -15 -10 -5 3
-12 1 -16 -5 -4 -6 -11 -8 -16 -5 -5 4 -9 2 -9 -4 0 -5 -16 -15 -35 -21 -19
-6 -35 -16 -35 -21 0 -6 -4 -8 -9 -5 -10 7 -71 -25 -71 -36 0 -4 -6 -5 -14 -2
-7 3 -21 -2 -30 -11 -9 -9 -16 -13 -16 -9 0 3 -6 1 -13 -5 -8 -6 -17 -8 -20
-4 -4 3 -7 2 -7 -3 0 -6 -15 -16 -34 -23 l-33 -14 0 -261 c0 -143 4 -269 8
-278 5 -9 5 -19 1 -22 -5 -3 -9 -721 -9 -1595 l0 -1590 71 -30 c39 -16 78 -31
86 -33 8 -2 21 -9 28 -16 8 -7 19 -11 26 -9 6 2 17 -3 24 -12 11 -13 12 -13 6
-1 -5 11 -2 10 13 -3 11 -10 30 -19 42 -20 11 -1 21 -5 21 -9 0 -4 4 -8 9 -8
5 0 26 -8 47 -17 22 -9 41 -17 44 -18 3 -1 18 -7 33 -13 16 -7 33 -12 38 -12
5 0 9 -4 9 -9 0 -5 14 -12 30 -16 17 -4 30 -12 30 -18 0 -7 4 -6 10 3 6 9 10
10 10 3 0 -6 10 -15 23 -19 12 -4 49 -20 83 -35 34 -16 66 -29 72 -29 7 0 12
-4 12 -10 0 -5 3 -9 8 -9 4 1 21 -3 37 -10 17 -6 34 -11 39 -10 5 0 12 -3 15
-8 5 -7 52 -32 71 -38 3 -1 19 -8 35 -15 17 -7 32 -14 35 -15 21 -6 66 -31 72
-40 4 -5 8 -6 8 -2 0 5 12 1 27 -7 40 -21 142 -67 145 -65 2 2 23 -9 48 -22
25 -14 61 -31 80 -39 19 -7 44 -20 54 -29 16 -13 18 -13 11 -1 -5 9 1 7 14 -5
13 -11 25 -19 27 -17 2 1 18 -5 34 -13 17 -9 35 -13 41 -10 5 4 8 1 7 -6 -2
-7 2 -13 7 -14 16 -1 95 -38 95 -45 0 -3 12 -7 27 -8 15 -1 29 -6 32 -11 7
-11 107 -61 112 -57 2 2 10 -2 17 -10 7 -8 8 -14 2 -14 -5 0 -10 -7 -10 -16 0
-8 -4 -12 -10 -9 -11 7 -170 -147 -170 -164 0 -6 -14 -24 -30 -41 -17 -17 -30
-35 -30 -40 0 -5 -9 -12 -21 -15 -11 -4 -18 -9 -15 -13 3 -3 -12 -22 -34 -43
-40 -38 -51 -56 -27 -44 6 4 5 0 -5 -7 -9 -8 -18 -23 -20 -33 -1 -11 -7 -23
-12 -26 -10 -8 -11 -143 -1 -160 7 -10 10 -26 19 -114 2 -16 4 -32 5 -35 1 -3
751 -5 1668 -5 1316 0 1667 3 1671 13 2 6 9 12 16 12 21 0 85 37 78 45 -4 5
-2 5 4 2 6 -3 33 5 60 18 27 14 55 25 62 25 6 0 12 5 12 11 0 5 5 7 10 4 6 -3
10 -1 10 4 0 6 3 10 8 9 11 -2 106 42 113 53 3 6 8 10 10 9 13 -6 58 14 52 23
-4 6 0 8 10 4 8 -3 21 1 27 8 7 8 16 12 21 9 5 -3 9 -1 9 5 0 6 7 8 15 5 8 -4
15 -2 15 4 0 9 49 33 73 36 4 1 11 6 15 11 4 6 16 12 27 13 11 2 22 8 23 13 2
5 8 9 13 9 16 0 123 52 131 64 4 6 8 8 8 3 0 -4 15 0 33 10 17 9 35 16 40 15
4 -1 7 3 7 10 0 6 3 8 7 5 3 -4 15 0 25 10 10 9 18 13 18 10 0 -3 30 10 68 28
37 19 73 35 80 35 6 0 12 4 12 9 0 8 37 24 53 22 4 -1 7 4 7 10 0 5 4 8 9 4 5
-3 16 2 25 10 8 9 19 16 23 15 19 0 43 12 43 22 0 6 3 9 6 5 4 -3 21 1 38 10
17 10 34 16 39 15 4 -1 7 3 7 9 0 5 5 7 10 4 6 -3 10 -1 10 5 0 6 4 9 9 5 5
-3 12 -1 16 5 4 6 10 8 15 5 4 -3 11 2 14 11 4 9 13 14 21 10 8 -3 15 -1 15 4
0 6 7 10 16 10 8 0 22 7 31 15 8 8 19 13 24 10 5 -4 9 -1 9 4 0 6 3 10 8 9 11
-2 146 64 154 76 4 6 8 7 8 3 0 -4 20 4 45 18 25 13 47 25 50 26 32 7 45 13
45 22 0 6 3 8 6 5 3 -4 17 0 32 8 l27 14 1 1900 c0 1538 -2 1898 -12 1889 -7
-6 -38 -35 -69 -65 -31 -30 -61 -54 -65 -54 -5 0 -12 -9 -15 -20 -4 -11 -10
-18 -14 -16 -4 3 -31 -19 -59 -49 -29 -29 -52 -52 -52 -50 0 2 -19 -14 -42
-36 -23 -21 -46 -39 -51 -39 -4 0 -5 -4 -2 -10 3 -5 2 -10 -4 -10 -6 0 -27
-17 -48 -37 -21 -21 -41 -37 -45 -36 -4 2 -10 -6 -13 -17 -4 -11 -11 -20 -16
-20 -16 0 -59 -47 -51 -56 4 -4 2 -4 -4 -1 -7 4 -17 0 -24 -8 -18 -22 -32 -18
-20 5 6 11 7 20 3 20 -4 0 -3 4 2 8 15 11 36 62 30 73 -4 5 -2 9 3 9 5 0 13
10 17 23 4 12 8 24 10 27 12 27 29 77 27 83 -1 4 3 7 8 7 6 0 10 9 10 20 0 11
4 20 8 20 4 0 8 10 9 22 1 11 6 24 10 27 4 3 10 15 11 26 2 11 8 22 13 23 5 2
9 15 9 28 0 13 4 24 8 24 5 0 9 6 9 13 0 6 9 31 21 55 11 23 15 39 9 36 -7 -3
-5 0 3 8 8 7 17 22 18 33 2 11 7 22 10 25 7 5 10 23 15 85 1 17 7 33 12 37 6
5 5 8 -3 8 -7 0 -10 5 -6 11 3 6 0 15 -7 20 -12 7 -12 9 0 9 8 0 1 12 -17 30
-18 17 -29 30 -25 30 4 0 -21 14 -57 31 -36 18 -67 35 -70 38 -3 3 -9 6 -15 7
-23 3 -55 17 -55 25 0 5 -6 6 -14 3 -8 -3 -17 0 -21 5 -3 6 -11 9 -16 6 -5 -4
-9 -1 -9 4 0 6 -11 11 -25 11 -14 0 -25 3 -25 8 0 6 -34 20 -80 33 -8 2 -21
10 -28 17 -8 7 -18 10 -23 7 -5 -4 -9 -1 -9 4 0 6 -3 10 -7 9 -5 -1 -24 4 -43
11 -19 8 -38 13 -42 12 -5 0 -8 3 -8 9 0 6 -3 9 -7 9 -25 -4 -43 2 -37 13 4 6
3 8 -3 5 -5 -3 -20 0 -34 7 -13 7 -28 14 -34 15 -13 4 -54 21 -85 34 -14 6
-28 11 -32 11 -3 1 -10 4 -14 9 -4 4 -16 7 -26 7 -10 0 -18 5 -18 10 0 6 -7
10 -15 10 -8 0 -40 12 -72 26 -32 14 -67 27 -77 30 -11 2 -24 8 -30 14 -5 5
-18 10 -28 10 -10 0 -18 4 -18 10 0 5 -7 7 -15 4 -8 -4 -15 -1 -15 6 0 6 -4 9
-9 6 -5 -4 -11 -2 -13 3 -1 5 -14 11 -28 13 -14 1 -28 7 -31 11 -3 5 -12 10
-20 11 -8 2 -25 8 -39 13 -14 6 -28 10 -31 9 -3 0 -13 5 -22 13 -10 7 -17 10
-17 6 0 -5 -9 2 -20 15 -14 16 -17 27 -10 35 6 7 6 15 -2 23 -7 7 -8 12 -2 12
5 0 10 21 11 48 2 64 12 226 18 287 3 28 7 86 10 130 6 91 13 170 15 170 1 0
3 10 4 23 2 12 -2 22 -7 22 -6 0 -6 5 0 13 8 10 10 31 4 40 -1 1 -4 17 -7 35
-7 58 -91 121 -169 127 -11 1 -40 5 -65 10 -72 12 -155 23 -220 30 -25 2 -45
5 -45 6 0 1 -49 8 -110 13 -27 3 -50 5 -50 6 0 1 -20 4 -45 6 -25 2 -56 5 -70
7 -14 1 -28 7 -32 12 -5 6 -8 5 -8 -3 0 -8 -5 -10 -12 -6 -11 7 -41 11 -120
15 -16 1 -28 6 -28 12 0 5 -7 4 -15 -3 -8 -7 -15 -8 -15 -3 0 5 -15 10 -32 11
-39 1 -143 10 -143 12 0 2 -28 5 -110 14 -27 2 -50 5 -50 6 0 1 -19 3 -43 5
-84 8 -128 14 -147 21 -14 6 -16 4 -10 -6 6 -9 4 -11 -5 -5 -7 4 -29 10 -47
12 -26 3 -33 0 -27 -9 6 -10 4 -10 -7 -2 -18 14 -32 14 -94 -3z"/>
</g>
</svg>
